<?xml version="1.0" encoding="UTF-8" standalone="no"?>
<!DOCTYPE svg PUBLIC "-//W3C//DTD SVG 1.1//EN"
 "http://www.w3.org/Graphics/SVG/1.1/DTD/svg11.dtd">
<!-- Generated by graphviz version 2.38.0 (20140413.2041)
 -->
<!-- Title: %3 Pages: 1 -->
<svg width="704pt" height="404pt"
 viewBox="0.00 0.00 703.50 404.00" xmlns="http://www.w3.org/2000/svg" xmlns:xlink="http://www.w3.org/1999/xlink">
<g id="graph0" class="graph" transform="scale(1 1) rotate(0) translate(4 400)">
<title>%3</title>
<!-- 8e448cd8ef842bd19b9c7760c13af761bdce6d7a -->
<g id="node1" class="node"><title>8e448cd8ef842bd19b9c7760c13af761bdce6d7a</title>
<path fill="#fcf594" stroke="#a0a0a0" d="M683.5,-252C683.5,-252 402.5,-252 402.5,-252 396.5,-252 390.5,-246 390.5,-240 390.5,-240 390.5,-228 390.5,-228 390.5,-222 396.5,-216 402.5,-216 402.5,-216 683.5,-216 683.5,-216 689.5,-216 695.5,-222 695.5,-228 695.5,-228 695.5,-240 695.5,-240 695.5,-246 689.5,-252 683.5,-252"/>
<text text-anchor="start" x="406.5" y="-237.8" font-family="Courier,monospace" font-size="14.00" fill="#333355">8e448c:</text>
<text text-anchor="start" x="464.5" y="-237.8" font-family="Courier,monospace" font-weight="bold" font-size="14.00" fill="#333355">hello&#45;world: add changelog</text>
<text text-anchor="start" x="398.5" y="-223.8" font-family="Courier,monospace" font-size="14.00" fill="#333355"> Max Mustermann 2017&#45;07&#45;31 13:59:05</text>
</g>
<!-- f5f3b628bb5c77ac5bbe9409bac7c5ac148a7f43 -->
<g id="node3" class="node"><title>f5f3b628bb5c77ac5bbe9409bac7c5ac148a7f43</title>
<path fill="#fcf594" stroke="#a0a0a0" d="M504.5,-324C504.5,-324 223.5,-324 223.5,-324 217.5,-324 211.5,-318 211.5,-312 211.5,-312 211.5,-300 211.5,-300 211.5,-294 217.5,-288 223.5,-288 223.5,-288 504.5,-288 504.5,-288 510.5,-288 516.5,-294 516.5,-300 516.5,-300 516.5,-312 516.5,-312 516.5,-318 510.5,-324 504.5,-324"/>
<text text-anchor="start" x="235.5" y="-309.8" font-family="Courier,monospace" font-size="14.00" fill="#333355">f5f3b6:</text>
<text text-anchor="start" x="293.5" y="-309.8" font-family="Courier,monospace" font-weight="bold" font-size="14.00" fill="#333355">merge hello&#45;world branch</text>
<text text-anchor="start" x="219.5" y="-295.8" font-family="Courier,monospace" font-size="14.00" fill="#333355"> Max Mustermann 2017&#45;07&#45;31 15:23:54</text>
</g>
<!-- 8e448cd8ef842bd19b9c7760c13af761bdce6d7a&#45;&gt;f5f3b628bb5c77ac5bbe9409bac7c5ac148a7f43 -->
<g id="edge7" class="edge"><title>8e448cd8ef842bd19b9c7760c13af761bdce6d7a&#45;&gt;f5f3b628bb5c77ac5bbe9409bac7c5ac148a7f43</title>
<path fill="none" stroke="#cc9900" stroke-width="2" d="M453.5,-252.169C453.5,-252.169 453.5,-277.587 453.5,-277.587"/>
<polygon fill="#cc9900" stroke="#cc9900" stroke-width="2" points="450,-277.587 453.5,-287.587 457,-277.587 450,-277.587"/>
</g>
<!-- c1ce07c74020b5c0e113639e8d976bf32a843c6b -->
<g id="node2" class="node"><title>c1ce07c74020b5c0e113639e8d976bf32a843c6b</title>
<path fill="#fcf594" stroke="#a0a0a0" d="M360,-252C360,-252 12,-252 12,-252 6,-252 2.84217e-14,-246 2.84217e-14,-240 2.84217e-14,-240 2.84217e-14,-228 2.84217e-14,-228 2.84217e-14,-222 6,-216 12,-216 12,-216 360,-216 360,-216 366,-216 372,-222 372,-228 372,-228 372,-240 372,-240 372,-246 366,-252 360,-252"/>
<text text-anchor="start" x="8" y="-237.8" font-family="Courier,monospace" font-size="14.00" fill="#333355">c1ce07:</text>
<text text-anchor="start" x="66" y="-237.8" font-family="Courier,monospace" font-weight="bold" font-size="14.00" fill="#333355">add remark about &#39;hello world&#39; order</text>
<text text-anchor="start" x="41.5" y="-223.8" font-family="Courier,monospace" font-size="14.00" fill="#333355"> Max Mustermann 2017&#45;07&#45;31 13:29:11</text>
</g>
<!-- c1ce07c74020b5c0e113639e8d976bf32a843c6b&#45;&gt;f5f3b628bb5c77ac5bbe9409bac7c5ac148a7f43 -->
<g id="edge2" class="edge"><title>c1ce07c74020b5c0e113639e8d976bf32a843c6b&#45;&gt;f5f3b628bb5c77ac5bbe9409bac7c5ac148a7f43</title>
<path fill="none" stroke="#cc9900" stroke-width="2" d="M291.75,-252.169C291.75,-252.169 291.75,-277.587 291.75,-277.587"/>
<polygon fill="#cc9900" stroke="#cc9900" stroke-width="2" points="288.25,-277.587 291.75,-287.587 295.25,-277.587 288.25,-277.587"/>
</g>
<!-- refs/remotes/origin/master -->
<g id="node7" class="node"><title>refs/remotes/origin/master</title>
<path fill="#c7ffc7" stroke="#a0a0a0" d="M280,-396C280,-396 180,-396 180,-396 174,-396 168,-390 168,-384 168,-384 168,-372 168,-372 168,-366 174,-360 180,-360 180,-360 280,-360 280,-360 286,-360 292,-366 292,-372 292,-372 292,-384 292,-384 292,-390 286,-396 280,-396"/>
<text text-anchor="start" x="213" y="-381.8" font-family="Courier,monospace" font-weight="bold" font-size="14.00" fill="#333355">HEAD</text>
<text text-anchor="start" x="176" y="-367.8" font-family="Courier,monospace" font-weight="bold" font-size="14.00" fill="#333355">origin/master</text>
</g>
<!-- f5f3b628bb5c77ac5bbe9409bac7c5ac148a7f43&#45;&gt;refs/remotes/origin/master -->
<g id="edge5" class="edge"><title>f5f3b628bb5c77ac5bbe9409bac7c5ac148a7f43&#45;&gt;refs/remotes/origin/master</title>
<path fill="none" stroke="#cc9900" stroke-width="2" d="M251.75,-334.169C251.75,-334.169 251.75,-359.587 251.75,-359.587"/>
<polygon fill="#cc9900" stroke="#cc9900" stroke-width="2" points="255.25,-334.169 251.75,-324.169 248.25,-334.169 255.25,-334.169"/>
</g>
<!-- refs/remotes/origin/HEAD -->
<g id="node8" class="node"><title>refs/remotes/origin/HEAD</title>
<path fill="#c7ffc7" stroke="#a0a0a0" d="M405.5,-396C405.5,-396 322.5,-396 322.5,-396 316.5,-396 310.5,-390 310.5,-384 310.5,-384 310.5,-372 310.5,-372 310.5,-366 316.5,-360 322.5,-360 322.5,-360 405.5,-360 405.5,-360 411.5,-360 417.5,-366 417.5,-372 417.5,-372 417.5,-384 417.5,-384 417.5,-390 411.5,-396 405.5,-396"/>
<text text-anchor="start" x="347" y="-381.8" font-family="Courier,monospace" font-weight="bold" font-size="14.00" fill="#333355">HEAD</text>
<text text-anchor="start" x="318.5" y="-367.8" font-family="Courier,monospace" font-weight="bold" font-size="14.00" fill="#333355">origin/HEAD</text>
</g>
<!-- f5f3b628bb5c77ac5bbe9409bac7c5ac148a7f43&#45;&gt;refs/remotes/origin/HEAD -->
<g id="edge8" class="edge"><title>f5f3b628bb5c77ac5bbe9409bac7c5ac148a7f43&#45;&gt;refs/remotes/origin/HEAD</title>
<path fill="none" stroke="#cc9900" stroke-width="2" d="M364,-334.169C364,-334.169 364,-359.587 364,-359.587"/>
<polygon fill="#cc9900" stroke="#cc9900" stroke-width="2" points="367.5,-334.169 364,-324.169 360.5,-334.169 367.5,-334.169"/>
</g>
<!-- refs/heads/master -->
<g id="node9" class="node"><title>refs/heads/master</title>
<path fill="#c7ffc7" stroke="#a0a0a0" d="M490,-396C490,-396 448,-396 448,-396 442,-396 436,-390 436,-384 436,-384 436,-372 436,-372 436,-366 442,-360 448,-360 448,-360 490,-360 490,-360 496,-360 502,-366 502,-372 502,-372 502,-384 502,-384 502,-390 496,-396 490,-396"/>
<text text-anchor="start" x="452" y="-381.8" font-family="Courier,monospace" font-weight="bold" font-size="14.00" fill="#333355">HEAD</text>
<text text-anchor="start" x="444" y="-367.8" font-family="Courier,monospace" font-weight="bold" font-size="14.00" fill="#333355">master</text>
</g>
<!-- f5f3b628bb5c77ac5bbe9409bac7c5ac148a7f43&#45;&gt;refs/heads/master -->
<g id="edge3" class="edge"><title>f5f3b628bb5c77ac5bbe9409bac7c5ac148a7f43&#45;&gt;refs/heads/master</title>
<path fill="none" stroke="#cc9900" stroke-width="2" d="M469,-334.169C469,-334.169 469,-359.587 469,-359.587"/>
<polygon fill="#cc9900" stroke="#cc9900" stroke-width="2" points="472.5,-334.169 469,-324.169 465.5,-334.169 472.5,-334.169"/>
</g>
<!-- 9af1a518a77bc56dc697bee6ba1c356bb0c1b2f8 -->
<g id="node4" class="node"><title>9af1a518a77bc56dc697bee6ba1c356bb0c1b2f8</title>
<path fill="#fcf594" stroke="#a0a0a0" d="M460.5,-108C460.5,-108 179.5,-108 179.5,-108 173.5,-108 167.5,-102 167.5,-96 167.5,-96 167.5,-84 167.5,-84 167.5,-78 173.5,-72 179.5,-72 179.5,-72 460.5,-72 460.5,-72 466.5,-72 472.5,-78 472.5,-84 472.5,-84 472.5,-96 472.5,-96 472.5,-102 466.5,-108 460.5,-108"/>
<text text-anchor="start" x="249.5" y="-93.8" font-family="Courier,monospace" font-size="14.00" fill="#333355">9af1a5:</text>
<text text-anchor="start" x="307.5" y="-93.8" font-family="Courier,monospace" font-weight="bold" font-size="14.00" fill="#333355">add README</text>
<text text-anchor="start" x="175.5" y="-79.8" font-family="Courier,monospace" font-size="14.00" fill="#333355"> Max Mustermann 2017&#45;07&#45;31 13:03:40</text>
</g>
<!-- 9af1a518a77bc56dc697bee6ba1c356bb0c1b2f8&#45;&gt;c1ce07c74020b5c0e113639e8d976bf32a843c6b -->
<g id="edge6" class="edge"><title>9af1a518a77bc56dc697bee6ba1c356bb0c1b2f8&#45;&gt;c1ce07c74020b5c0e113639e8d976bf32a843c6b</title>
<path fill="none" stroke="#cc9900" stroke-width="2" d="M257,-108.238C257,-108.238 257,-205.91 257,-205.91"/>
<polygon fill="#cc9900" stroke="#cc9900" stroke-width="2" points="253.5,-205.91 257,-215.91 260.5,-205.91 253.5,-205.91"/>
</g>
<!-- 0dd2abecc31c0dca958734cbff92f3a1554cd7f1 -->
<g id="node5" class="node"><title>0dd2abecc31c0dca958734cbff92f3a1554cd7f1</title>
<path fill="#fcf594" stroke="#a0a0a0" d="M639.5,-180C639.5,-180 358.5,-180 358.5,-180 352.5,-180 346.5,-174 346.5,-168 346.5,-168 346.5,-156 346.5,-156 346.5,-150 352.5,-144 358.5,-144 358.5,-144 639.5,-144 639.5,-144 645.5,-144 651.5,-150 651.5,-156 651.5,-156 651.5,-168 651.5,-168 651.5,-174 645.5,-180 639.5,-180"/>
<text text-anchor="start" x="379" y="-165.8" font-family="Courier,monospace" font-size="14.00" fill="#333355">0dd2ab:</text>
<text text-anchor="start" x="437" y="-165.8" font-family="Courier,monospace" font-weight="bold" font-size="14.00" fill="#333355">add hello&#45;world script</text>
<text text-anchor="start" x="354.5" y="-151.8" font-family="Courier,monospace" font-size="14.00" fill="#333355"> Max Mustermann 2017&#45;07&#45;31 13:20:17</text>
</g>
<!-- 9af1a518a77bc56dc697bee6ba1c356bb0c1b2f8&#45;&gt;0dd2abecc31c0dca958734cbff92f3a1554cd7f1 -->
<g id="edge9" class="edge"><title>9af1a518a77bc56dc697bee6ba1c356bb0c1b2f8&#45;&gt;0dd2abecc31c0dca958734cbff92f3a1554cd7f1</title>
<path fill="none" stroke="#cc9900" stroke-width="2" d="M409.5,-108.169C409.5,-108.169 409.5,-133.587 409.5,-133.587"/>
<polygon fill="#cc9900" stroke="#cc9900" stroke-width="2" points="406,-133.587 409.5,-143.587 413,-133.587 406,-133.587"/>
</g>
<!-- 0dd2abecc31c0dca958734cbff92f3a1554cd7f1&#45;&gt;8e448cd8ef842bd19b9c7760c13af761bdce6d7a -->
<g id="edge4" class="edge"><title>0dd2abecc31c0dca958734cbff92f3a1554cd7f1&#45;&gt;8e448cd8ef842bd19b9c7760c13af761bdce6d7a</title>
<path fill="none" stroke="#cc9900" stroke-width="2" d="M521,-180.169C521,-180.169 521,-205.587 521,-205.587"/>
<polygon fill="#cc9900" stroke="#cc9900" stroke-width="2" points="517.5,-205.587 521,-215.587 524.5,-205.587 517.5,-205.587"/>
</g>
<!-- 849c17589476d9451bc55659008cda5ac2aa68cb -->
<g id="node6" class="node"><title>849c17589476d9451bc55659008cda5ac2aa68cb</title>
<path fill="#fcf594" stroke="#a0a0a0" d="M460.5,-36C460.5,-36 179.5,-36 179.5,-36 173.5,-36 167.5,-30 167.5,-24 167.5,-24 167.5,-12 167.5,-12 167.5,-6 173.5,-0 179.5,-0 179.5,-0 460.5,-0 460.5,-0 466.5,-0 472.5,-6 472.5,-12 472.5,-12 472.5,-24 472.5,-24 472.5,-30 466.5,-36 460.5,-36"/>
<text text-anchor="start" x="216.5" y="-21.8" font-family="Courier,monospace" font-size="14.00" fill="#333355">849c17:</text>
<text text-anchor="start" x="274.5" y="-21.8" font-family="Courier,monospace" font-weight="bold" font-size="14.00" fill="#333355">inital boilerplate</text>
<text text-anchor="start" x="175.5" y="-7.8" font-family="Courier,monospace" font-size="14.00" fill="#333355"> Max Mustermann 2017&#45;07&#45;31 12:59:40</text>
</g>
<!-- 849c17589476d9451bc55659008cda5ac2aa68cb&#45;&gt;9af1a518a77bc56dc697bee6ba1c356bb0c1b2f8 -->
<g id="edge1" class="edge"><title>849c17589476d9451bc55659008cda5ac2aa68cb&#45;&gt;9af1a518a77bc56dc697bee6ba1c356bb0c1b2f8</title>
<path fill="none" stroke="#cc9900" stroke-width="2" d="M320,-36.1686C320,-36.1686 320,-61.5867 320,-61.5867"/>
<polygon fill="#cc9900" stroke="#cc9900" stroke-width="2" points="316.5,-61.5867 320,-71.5867 323.5,-61.5868 316.5,-61.5867"/>
</g>
</g>
</svg>
